<svg width="28" height="39" viewBox="0 0 28 39" fill="none" xmlns="http://www.w3.org/2000/svg">
<path d="M14 2.09961L3 12H6V21H13V15H15V21H22V12H25L14 2.09961ZM14 4.79102L20 10.1914V11V19H17V13H11V19H8V10.1914L14 4.79102Z" fill="white"/>
<path d="M1.8592 35H1.0528V27.0704H1.8592V35ZM4.60058 29.7584C4.61551 29.9003 4.62671 30.0571 4.63418 30.2288C4.64164 30.4005 4.64537 30.5424 4.64537 30.6544H4.66777C4.81711 30.3483 5.05977 30.1019 5.39578 29.9152C5.73178 29.7211 6.08644 29.624 6.45977 29.624C7.12431 29.624 7.62084 29.8219 7.94938 30.2176C8.28538 30.6133 8.45338 31.136 8.45338 31.7856V35H7.69178V32.0992C7.69178 31.8229 7.66938 31.5728 7.62458 31.3488C7.57978 31.1248 7.50138 30.9344 7.38937 30.7776C7.28484 30.6133 7.13924 30.4864 6.95258 30.3968C6.77338 30.3072 6.54564 30.2624 6.26938 30.2624C6.06777 30.2624 5.86991 30.3035 5.67578 30.3856C5.48911 30.4677 5.32111 30.5947 5.17177 30.7664C5.02244 30.9307 4.90298 31.1435 4.81337 31.4048C4.72377 31.6587 4.67898 31.9611 4.67898 32.312V35H3.91737V30.912C3.91737 30.7701 3.91364 30.5872 3.90617 30.3632C3.89871 30.1392 3.88751 29.9376 3.87257 29.7584H4.60058ZM11.198 35H10.4364V29.7584H11.198V35ZM11.3548 27.7424C11.3548 27.8992 11.2988 28.0299 11.1868 28.1344C11.0748 28.2315 10.9516 28.28 10.8172 28.28C10.6828 28.28 10.5596 28.2315 10.4476 28.1344C10.3356 28.0299 10.2796 27.8992 10.2796 27.7424C10.2796 27.5856 10.3356 27.4587 10.4476 27.3616C10.5596 27.2571 10.6828 27.2048 10.8172 27.2048C10.9516 27.2048 11.0748 27.2571 11.1868 27.3616C11.2988 27.4587 11.3548 27.5856 11.3548 27.7424ZM16.9996 30.9568C16.8727 30.7552 16.686 30.5909 16.4396 30.464C16.2007 30.3296 15.9393 30.2624 15.6556 30.2624C15.3495 30.2624 15.0732 30.3184 14.8268 30.4304C14.5804 30.5349 14.3676 30.6843 14.1884 30.8784C14.0167 31.0651 13.8823 31.2891 13.7852 31.5504C13.6956 31.8043 13.6508 32.0805 13.6508 32.3792C13.6508 32.6779 13.6956 32.9541 13.7852 33.208C13.8823 33.4619 14.0167 33.6859 14.1884 33.88C14.3601 34.0667 14.5692 34.216 14.8156 34.328C15.062 34.4325 15.3383 34.4848 15.6444 34.4848C15.9804 34.4848 16.2641 34.4213 16.4956 34.2944C16.7271 34.1675 16.9175 34.0032 17.0668 33.8016L17.638 34.2272C17.414 34.5035 17.1377 34.7237 16.8092 34.888C16.4881 35.0523 16.0999 35.1344 15.6444 35.1344C15.2188 35.1344 14.8343 35.0672 14.4908 34.9328C14.1473 34.7909 13.8524 34.5968 13.606 34.3504C13.3671 34.104 13.1804 33.8128 13.046 33.4768C12.9116 33.1408 12.8444 32.7749 12.8444 32.3792C12.8444 31.9835 12.9116 31.6176 13.046 31.2816C13.1804 30.9456 13.3671 30.6544 13.606 30.408C13.8524 30.1616 14.1473 29.9712 14.4908 29.8368C14.8343 29.6949 15.2188 29.624 15.6444 29.624C15.9953 29.624 16.35 29.7024 16.7084 29.8592C17.0743 30.0085 17.3692 30.2325 17.5932 30.5312L16.9996 30.9568ZM19.598 35H18.8364V29.7584H19.598V35ZM19.7548 27.7424C19.7548 27.8992 19.6988 28.0299 19.5868 28.1344C19.4748 28.2315 19.3516 28.28 19.2172 28.28C19.0828 28.28 18.9596 28.2315 18.8476 28.1344C18.7356 28.0299 18.6796 27.8992 18.6796 27.7424C18.6796 27.5856 18.7356 27.4587 18.8476 27.3616C18.9596 27.2571 19.0828 27.2048 19.2172 27.2048C19.3516 27.2048 19.4748 27.2571 19.5868 27.3616C19.6988 27.4587 19.7548 27.5856 19.7548 27.7424ZM26.8332 32.3792C26.8332 32.7749 26.7623 33.1408 26.6204 33.4768C26.486 33.8128 26.2956 34.104 26.0492 34.3504C25.8028 34.5968 25.5079 34.7909 25.1644 34.9328C24.8209 35.0672 24.4439 35.1344 24.0332 35.1344C23.63 35.1344 23.2567 35.0672 22.9132 34.9328C22.5697 34.7909 22.2748 34.5968 22.0284 34.3504C21.782 34.104 21.5879 33.8128 21.446 33.4768C21.3116 33.1408 21.2444 32.7749 21.2444 32.3792C21.2444 31.9835 21.3116 31.6176 21.446 31.2816C21.5879 30.9456 21.782 30.6544 22.0284 30.408C22.2748 30.1616 22.5697 29.9712 22.9132 29.8368C23.2567 29.6949 23.63 29.624 24.0332 29.624C24.4439 29.624 24.8209 29.6949 25.1644 29.8368C25.5079 29.9712 25.8028 30.1616 26.0492 30.408C26.2956 30.6544 26.486 30.9456 26.6204 31.2816C26.7623 31.6176 26.8332 31.9835 26.8332 32.3792ZM26.0268 32.3792C26.0268 32.088 25.9783 31.8155 25.8812 31.5616C25.7916 31.3003 25.6609 31.0763 25.4892 30.8896C25.3175 30.6955 25.1084 30.5424 24.862 30.4304C24.6156 30.3184 24.3393 30.2624 24.0332 30.2624C23.7271 30.2624 23.4508 30.3184 23.2044 30.4304C22.9655 30.5424 22.7601 30.6955 22.5884 30.8896C22.4167 31.0763 22.2823 31.3003 22.1852 31.5616C22.0956 31.8155 22.0508 32.088 22.0508 32.3792C22.0508 32.6704 22.0956 32.9467 22.1852 33.208C22.2823 33.4619 22.4167 33.6859 22.5884 33.88C22.7601 34.0667 22.9655 34.216 23.2044 34.328C23.4508 34.4325 23.7271 34.4848 24.0332 34.4848C24.3393 34.4848 24.6156 34.4325 24.862 34.328C25.1084 34.216 25.3175 34.0667 25.4892 33.88C25.6609 33.6859 25.7916 33.4619 25.8812 33.208C25.9783 32.9467 26.0268 32.6704 26.0268 32.3792Z" fill="white"/>
</svg>
